<svg width="393" height="166" viewBox="0 0 393 166" fill="none" xmlns="http://www.w3.org/2000/svg">
<rect width="392" height="164" fill="#FBFBFB"/>
<path d="M251.613 37.5218L251.4 37.3589C254.234 33.6384 255.732 29.1939 255.732 24.5038C255.732 17.2381 252.077 10.5538 245.953 6.62281L246.099 6.39732C252.3 10.3759 256 17.1454 256 24.5038C256 29.2515 254.482 33.7537 251.613 37.5218Z" fill="#4B68BF" fill-opacity="0.5"/>
<path d="M234.501 46.0025C222.646 46.0025 213 36.3568 213 24.5013C213 12.6457 222.646 3 234.501 3V3.26807C222.794 3.26807 213.271 12.7936 213.271 24.4987C213.271 36.2064 222.796 45.7294 234.501 45.7294C238.039 45.7294 241.541 44.8425 244.628 43.1639L244.756 43.3994C241.629 45.1056 238.081 46.0025 234.501 46.0025Z" fill="#4B68BF" fill-opacity="0.5"/>
<path d="M224.327 41.0518C218.534 37.4842 215.077 31.2959 215.077 24.5012H215.616C215.616 31.1079 218.978 37.1234 224.61 40.5934L224.327 41.0518Z" fill="#4B68BF" fill-opacity="0.5"/>
<path d="M234.501 43.928C232.372 43.928 230.28 43.5848 228.28 42.9108L228.453 42.4023C230.397 43.0587 232.432 43.3919 234.504 43.3919C244.232 43.3919 252.312 36.1037 253.292 26.4379L253.828 26.493C252.816 36.4294 244.508 43.928 234.501 43.928Z" fill="#4B68BF" fill-opacity="0.5"/>
<path d="M253.146 21.4848C252.442 17.1028 250.193 13.0867 246.808 10.1779C243.388 7.23662 239.016 5.61813 234.501 5.61813C230.856 5.61813 227.318 6.65787 224.269 8.62711C220.717 10.922 218.006 14.3795 216.635 18.363L216.127 18.1877C217.535 14.0914 220.323 10.5362 223.976 8.17613C227.113 6.15178 230.751 5.08198 234.499 5.08198C239.144 5.08198 243.638 6.74806 247.156 9.77206C250.636 12.7635 252.951 16.8949 253.675 21.4021L253.146 21.4848Z" fill="#4B68BF" fill-opacity="0.5"/>
<path d="M234.501 38.5314C226.765 38.5314 220.471 32.2379 220.471 24.5013C220.471 21.3695 221.481 18.4081 223.387 15.9378L223.813 16.266C221.979 18.6437 221.01 21.4898 221.01 24.5013C221.01 31.9398 227.063 37.9928 234.501 37.9928C235.822 37.9928 237.127 37.8024 238.377 37.4266L238.532 37.9427C237.23 38.336 235.872 38.5314 234.501 38.5314Z" fill="#4B68BF" fill-opacity="0.5"/>
<path d="M243.977 34.8485L243.613 34.4526C246.397 31.9022 247.993 28.2769 247.993 24.5037C247.993 21.848 247.221 19.2775 245.763 17.0703L246.211 16.7746C247.73 19.0696 248.531 21.7428 248.531 24.5062C248.529 28.4272 246.87 32.1978 243.977 34.8485Z" fill="#4B68BF" fill-opacity="0.5"/>
<path d="M242.894 13.9385C240.487 12.0219 237.583 11.0097 234.501 11.0097C231.798 11.0097 229.19 11.8064 226.958 13.3147L226.657 12.8687C228.977 11.3004 231.69 10.4736 234.501 10.4736C237.708 10.4736 240.727 11.5258 243.23 13.5201L242.894 13.9385Z" fill="#4B68BF" fill-opacity="0.5"/>
<path d="M234.501 36.1212C232.612 36.1212 230.736 35.6578 229.077 34.7809L229.202 34.5429C230.823 35.3997 232.655 35.8532 234.499 35.8532C239.592 35.8532 244.092 32.4283 245.442 27.5228L245.7 27.5954C244.322 32.6162 239.715 36.1212 234.501 36.1212Z" fill="#4B68BF" fill-opacity="0.5"/>
<path d="M226.286 32.7214C224.091 30.5267 222.881 27.6079 222.881 24.5038C222.881 18.0975 228.092 12.8838 234.501 12.8838C240.908 12.8838 246.121 18.0975 246.121 24.5038H245.853C245.853 18.2453 240.762 13.1543 234.504 13.1543C228.245 13.1543 223.154 18.2453 223.154 24.5038C223.154 27.5353 224.334 30.3864 226.482 32.531L226.286 32.7214Z" fill="#4B68BF" fill-opacity="0.5"/>
<path d="M234.501 31.7293C230.515 31.7293 227.273 28.4873 227.273 24.5013C227.273 20.5152 230.515 17.2732 234.501 17.2732V17.8119C230.813 17.8119 227.812 20.8133 227.812 24.5013C227.812 28.1892 230.813 31.1906 234.501 31.1906C238.189 31.1906 241.191 28.1892 241.191 24.5013H241.729C241.727 28.4873 238.485 31.7293 234.501 31.7293Z" fill="#4B68BF" fill-opacity="0.5"/>
<path d="M234.501 28.094C232.519 28.094 230.909 26.483 230.909 24.5013H231.177C231.177 26.3327 232.667 27.8234 234.499 27.8234C236.33 27.8234 237.821 26.3327 237.821 24.5013C237.821 22.6698 236.33 21.1791 234.499 21.1791C233.482 21.1791 232.535 21.6351 231.898 22.4318L231.688 22.2639C232.374 21.4021 233.399 20.9085 234.499 20.9085C236.481 20.9085 238.091 22.5195 238.091 24.5013C238.091 26.483 236.481 28.094 234.501 28.094Z" fill="#4B68BF" fill-opacity="0.5"/>
<path d="M216.613 156.522L216.4 156.359C219.234 152.638 220.732 148.194 220.732 143.504C220.732 136.238 217.077 129.554 210.953 125.623L211.099 125.397C217.3 129.376 221 136.145 221 143.504C221 148.251 219.482 152.754 216.613 156.522Z" fill="#4B68BF" fill-opacity="0.5"/>
<path d="M199.501 165.003C187.646 165.003 178 155.357 178 143.501C178 131.646 187.646 122 199.501 122V122.268C187.794 122.268 178.271 131.794 178.271 143.499C178.271 155.206 187.796 164.729 199.501 164.729C203.039 164.729 206.541 163.843 209.628 162.164L209.756 162.399C206.629 164.106 203.081 165.003 199.501 165.003Z" fill="#4B68BF" fill-opacity="0.5"/>
<path d="M189.327 160.052C183.534 156.484 180.077 150.296 180.077 143.501H180.616C180.616 150.108 183.978 156.123 189.61 159.593L189.327 160.052Z" fill="#4B68BF" fill-opacity="0.5"/>
<path d="M199.501 162.928C197.372 162.928 195.28 162.585 193.28 161.911L193.453 161.402C195.397 162.059 197.432 162.392 199.504 162.392C209.232 162.392 217.312 155.104 218.292 145.438L218.828 145.493C217.816 155.429 209.508 162.928 199.501 162.928Z" fill="#4B68BF" fill-opacity="0.5"/>
<path d="M218.146 140.485C217.442 136.103 215.193 132.087 211.808 129.178C208.388 126.237 204.016 124.618 199.501 124.618C195.856 124.618 192.318 125.658 189.269 127.627C185.717 129.922 183.006 133.379 181.635 137.363L181.127 137.188C182.535 133.091 185.323 129.536 188.976 127.176C192.113 125.152 195.751 124.082 199.499 124.082C204.144 124.082 208.638 125.748 212.156 128.772C215.636 131.763 217.951 135.895 218.675 140.402L218.146 140.485Z" fill="#4B68BF" fill-opacity="0.5"/>
<path d="M199.501 157.531C191.765 157.531 185.471 151.238 185.471 143.501C185.471 140.37 186.481 137.408 188.387 134.938L188.813 135.266C186.979 137.644 186.01 140.49 186.01 143.501C186.01 150.94 192.063 156.993 199.501 156.993C200.822 156.993 202.127 156.802 203.377 156.427L203.532 156.943C202.23 157.336 200.872 157.531 199.501 157.531Z" fill="#4B68BF" fill-opacity="0.5"/>
<path d="M208.977 153.849L208.613 153.453C211.397 150.902 212.993 147.277 212.993 143.504C212.993 140.848 212.221 138.278 210.763 136.07L211.211 135.775C212.73 138.07 213.531 140.743 213.531 143.506C213.529 147.427 211.87 151.198 208.977 153.849Z" fill="#4B68BF" fill-opacity="0.5"/>
<path d="M207.894 132.939C205.487 131.022 202.583 130.01 199.501 130.01C196.798 130.01 194.19 130.806 191.958 132.315L191.657 131.869C193.977 130.3 196.69 129.474 199.501 129.474C202.708 129.474 205.727 130.526 208.23 132.52L207.894 132.939Z" fill="#4B68BF" fill-opacity="0.5"/>
<path d="M199.501 155.121C197.612 155.121 195.736 154.658 194.077 153.781L194.202 153.543C195.823 154.4 197.655 154.853 199.499 154.853C204.592 154.853 209.092 151.428 210.442 146.523L210.7 146.595C209.322 151.616 204.715 155.121 199.501 155.121Z" fill="#4B68BF" fill-opacity="0.5"/>
<path d="M191.286 151.721C189.091 149.527 187.881 146.608 187.881 143.504C187.881 137.097 193.092 131.884 199.501 131.884C205.908 131.884 211.121 137.097 211.121 143.504H210.853C210.853 137.245 205.762 132.154 199.504 132.154C193.245 132.154 188.154 137.245 188.154 143.504C188.154 146.535 189.334 149.386 191.482 151.531L191.286 151.721Z" fill="#4B68BF" fill-opacity="0.5"/>
<path d="M199.501 150.729C195.515 150.729 192.273 147.487 192.273 143.501C192.273 139.515 195.515 136.273 199.501 136.273V136.812C195.813 136.812 192.812 139.813 192.812 143.501C192.812 147.189 195.813 150.191 199.501 150.191C203.189 150.191 206.191 147.189 206.191 143.501H206.729C206.727 147.487 203.485 150.729 199.501 150.729Z" fill="#4B68BF" fill-opacity="0.5"/>
<path d="M199.501 147.094C197.519 147.094 195.909 145.483 195.909 143.501H196.177C196.177 145.333 197.667 146.823 199.499 146.823C201.33 146.823 202.821 145.333 202.821 143.501C202.821 141.67 201.33 140.179 199.499 140.179C198.482 140.179 197.535 140.635 196.898 141.432L196.688 141.264C197.374 140.402 198.399 139.909 199.499 139.909C201.481 139.909 203.091 141.519 203.091 143.501C203.091 145.483 201.481 147.094 199.501 147.094Z" fill="#4B68BF" fill-opacity="0.5"/>
<path d="M377.16 144.723C376.744 144.723 376.443 145.024 376.443 145.437C376.443 145.853 376.744 146.154 377.157 146.154C377.573 146.154 377.871 145.853 377.874 145.44C377.874 145.024 377.577 144.723 377.16 144.723Z" fill="#4B68BF"/>
<path d="M384.323 144.723C383.906 144.715 383.594 145.009 383.587 145.422C383.579 145.838 383.877 146.151 384.286 146.158C384.702 146.165 385.011 145.872 385.018 145.459C385.029 145.039 384.736 144.73 384.323 144.723Z" fill="#4B68BF"/>
<path d="M391.459 144.723C391.043 144.719 390.738 145.02 390.734 145.433C390.73 145.849 391.032 146.154 391.444 146.158C391.861 146.162 392.162 145.864 392.166 145.448C392.17 145.027 391.876 144.726 391.459 144.723Z" fill="#4B68BF"/>
<path d="M359.288 149.732C359.704 149.732 360.006 149.434 360.006 149.018C360.006 148.601 359.708 148.3 359.292 148.3C358.875 148.3 358.574 148.601 358.574 149.014C358.57 149.427 358.875 149.728 359.288 149.732Z" fill="#4B68BF"/>
<path d="M366.424 149.732C366.841 149.736 367.146 149.442 367.153 149.025C367.157 148.605 366.863 148.3 366.45 148.296C366.034 148.293 365.725 148.586 365.721 148.999C365.714 149.416 366.015 149.724 366.424 149.732Z" fill="#4B68BF"/>
<path d="M373.575 148.296C373.163 148.3 372.861 148.605 372.865 149.021C372.869 149.434 373.178 149.736 373.59 149.732C374.007 149.728 374.301 149.423 374.297 149.007C374.297 148.59 373.992 148.293 373.575 148.296Z" fill="#4B68BF"/>
<path d="M380.76 148.296C380.344 148.285 380.028 148.575 380.013 148.984C380.002 149.401 380.292 149.717 380.701 149.732C381.117 149.743 381.433 149.453 381.444 149.044C381.459 148.62 381.173 148.307 380.76 148.296Z" fill="#4B68BF"/>
<path d="M387.893 148.296C387.476 148.293 387.168 148.59 387.164 148.999C387.16 149.416 387.458 149.724 387.871 149.728C388.287 149.732 388.592 149.434 388.596 149.021C388.599 148.605 388.306 148.3 387.893 148.296Z" fill="#4B68BF"/>
<path d="M362.865 153.306C363.282 153.302 363.579 153.001 363.576 152.584C363.576 152.168 363.274 151.87 362.858 151.87C362.441 151.87 362.144 152.175 362.144 152.592C362.148 153.004 362.453 153.306 362.865 153.306Z" fill="#4B68BF"/>
<path d="M369.295 152.536C369.273 152.956 369.555 153.28 369.961 153.306C370.377 153.328 370.705 153.045 370.727 152.64C370.749 152.22 370.47 151.896 370.065 151.874C369.641 151.848 369.317 152.13 369.295 152.536Z" fill="#4B68BF"/>
<path d="M377.186 151.87C376.77 151.859 376.454 152.145 376.443 152.558C376.432 152.975 376.722 153.291 377.131 153.306C377.547 153.317 377.863 153.027 377.874 152.618C377.886 152.194 377.599 151.881 377.186 151.87Z" fill="#4B68BF"/>
<path d="M384.293 151.87C383.88 151.874 383.583 152.183 383.59 152.599C383.594 153.012 383.903 153.309 384.319 153.306C384.732 153.298 385.026 152.993 385.022 152.577C385.015 152.16 384.71 151.866 384.293 151.87Z" fill="#4B68BF"/>
<path d="M366.435 156.879C366.852 156.879 367.149 156.582 367.153 156.165C367.153 155.749 366.856 155.448 366.439 155.448C366.023 155.448 365.721 155.749 365.721 156.162C365.721 156.574 366.023 156.879 366.435 156.879Z" fill="#4B68BF"/>
<path d="M373.568 155.444C373.155 155.451 372.858 155.76 372.865 156.177C372.873 156.589 373.181 156.887 373.598 156.879C374.011 156.872 374.304 156.567 374.297 156.147C374.293 155.73 373.988 155.436 373.568 155.444Z" fill="#4B68BF"/>
<path d="M380.745 155.444C380.329 155.44 380.02 155.738 380.016 156.147C380.013 156.563 380.31 156.872 380.723 156.876C381.14 156.879 381.444 156.586 381.448 156.169C381.452 155.753 381.158 155.448 380.745 155.444Z" fill="#4B68BF"/>
<path d="M369.983 160.453C370.4 160.464 370.716 160.174 370.727 159.765C370.738 159.345 370.452 159.033 370.043 159.021C369.626 159.01 369.31 159.3 369.295 159.709C369.28 160.122 369.574 160.438 369.983 160.453Z" fill="#4B68BF"/>
<path d="M377.175 159.018C376.759 159.01 376.446 159.304 376.439 159.717C376.432 160.133 376.729 160.446 377.138 160.453C377.555 160.461 377.863 160.167 377.871 159.754C377.882 159.334 377.588 159.025 377.175 159.018Z" fill="#4B68BF"/>
<path d="M373.572 162.591C373.159 162.599 372.861 162.904 372.869 163.32C372.876 163.733 373.185 164.031 373.598 164.023C374.011 164.016 374.304 163.711 374.301 163.294C374.293 162.882 373.988 162.584 373.572 162.591Z" fill="#4B68BF"/>
<path d="M366.439 135.437C366.856 135.437 367.153 135.135 367.153 134.715C367.153 134.299 366.852 134.001 366.435 134.001C366.019 134.001 365.718 134.306 365.721 134.719C365.721 135.135 366.026 135.437 366.439 135.437Z" fill="#4B68BF"/>
<path d="M374.297 134.767C374.319 134.347 374.04 134.024 373.635 134.001C373.215 133.979 372.891 134.262 372.869 134.667C372.847 135.083 373.129 135.411 373.535 135.433C373.951 135.459 374.278 135.173 374.297 134.767Z" fill="#4B68BF"/>
<path d="M380.745 134.001C380.329 133.998 380.02 134.295 380.016 134.704C380.013 135.121 380.31 135.429 380.723 135.433C381.14 135.437 381.444 135.143 381.448 134.726C381.452 134.31 381.158 134.009 380.745 134.001Z" fill="#4B68BF"/>
<path d="M362.876 139.01C363.289 139.003 363.583 138.698 363.579 138.282C363.576 137.869 363.271 137.571 362.85 137.579C362.438 137.586 362.14 137.891 362.148 138.308C362.151 138.717 362.46 139.014 362.876 139.01Z" fill="#4B68BF"/>
<path d="M370.024 137.575C369.608 137.571 369.303 137.865 369.295 138.278C369.291 138.694 369.585 139.003 369.998 139.007C370.414 139.01 370.719 138.717 370.727 138.3C370.731 137.887 370.437 137.582 370.024 137.575Z" fill="#4B68BF"/>
<path d="M377.164 137.575C376.748 137.571 376.443 137.869 376.443 138.285C376.439 138.702 376.74 139.007 377.153 139.01C377.569 139.014 377.871 138.713 377.874 138.3C377.874 137.88 377.581 137.579 377.164 137.575Z" fill="#4B68BF"/>
<path d="M384.304 137.575C383.888 137.575 383.59 137.876 383.59 138.293C383.59 138.709 383.895 139.01 384.308 139.007C384.724 139.007 385.022 138.706 385.022 138.285C385.018 137.873 384.721 137.575 384.304 137.575Z" fill="#4B68BF"/>
<path d="M359.28 142.584C359.697 142.588 359.998 142.29 360.002 141.874C360.006 141.457 359.708 141.152 359.295 141.149C358.879 141.145 358.574 141.446 358.57 141.859C358.57 142.272 358.871 142.581 359.28 142.584Z" fill="#4B68BF"/>
<path d="M366.428 142.584C366.844 142.588 367.146 142.29 367.149 141.874C367.153 141.457 366.856 141.152 366.443 141.149C366.026 141.145 365.721 141.446 365.718 141.859C365.718 142.272 366.019 142.581 366.428 142.584Z" fill="#4B68BF"/>
<path d="M373.613 141.149C373.196 141.138 372.88 141.428 372.865 141.837C372.854 142.253 373.144 142.569 373.553 142.584C373.97 142.599 374.286 142.305 374.297 141.896C374.312 141.472 374.025 141.164 373.613 141.149Z" fill="#4B68BF"/>
<path d="M380.734 141.149C380.318 141.149 380.016 141.45 380.016 141.863C380.016 142.279 380.318 142.581 380.73 142.584C381.147 142.584 381.448 142.287 381.448 141.87C381.448 141.45 381.151 141.149 380.734 141.149Z" fill="#4B68BF"/>
<path d="M387.885 141.149C387.469 141.145 387.164 141.446 387.16 141.859C387.157 142.276 387.458 142.581 387.871 142.584C388.287 142.588 388.588 142.287 388.592 141.874C388.596 141.454 388.302 141.152 387.885 141.149Z" fill="#4B68BF"/>
<path d="M355.71 146.158C356.127 146.162 356.428 145.861 356.432 145.448C356.435 145.031 356.138 144.726 355.725 144.726C355.309 144.723 355.004 145.024 355 145.437C354.996 145.846 355.298 146.154 355.71 146.158Z" fill="#4B68BF"/>
<path d="M362.836 146.158C363.252 146.173 363.568 145.879 363.579 145.47C363.59 145.05 363.304 144.737 362.895 144.723C362.479 144.711 362.162 145.001 362.148 145.411C362.133 145.827 362.426 146.143 362.836 146.158Z" fill="#4B68BF"/>
<path d="M370.02 144.723C369.604 144.719 369.295 145.016 369.291 145.429C369.288 145.846 369.585 146.154 369.998 146.158C370.414 146.162 370.719 145.864 370.723 145.451C370.731 145.031 370.437 144.726 370.02 144.723Z" fill="#4B68BF"/>
<path d="M108.16 11.7226C107.744 11.7226 107.443 12.0238 107.443 12.4366C107.443 12.8531 107.744 13.1543 108.157 13.1543C108.573 13.1543 108.871 12.8531 108.874 12.4403C108.874 12.0238 108.577 11.7226 108.16 11.7226Z" fill="#4B68BF" fill-opacity="0.5"/>
<path d="M115.323 11.7226C114.906 11.7151 114.594 12.0089 114.587 12.4217C114.579 12.8382 114.877 13.1506 115.286 13.158C115.702 13.1655 116.011 12.8717 116.018 12.4589C116.029 12.0387 115.736 11.73 115.323 11.7226Z" fill="#4B68BF" fill-opacity="0.5"/>
<path d="M122.459 11.7226C122.043 11.7188 121.738 12.0201 121.734 12.4329C121.73 12.8494 122.032 13.1543 122.444 13.158C122.861 13.1617 123.162 12.8642 123.166 12.4477C123.17 12.0275 122.876 11.7263 122.459 11.7226Z" fill="#4B68BF" fill-opacity="0.5"/>
<path d="M90.2878 16.7318C90.7043 16.7318 91.0056 16.4343 91.0056 16.0178C91.0056 15.6013 90.708 15.3 90.2915 15.3C89.875 15.3 89.5738 15.6013 89.5738 16.0141C89.5701 16.4268 89.875 16.7281 90.2878 16.7318Z" fill="#4B68BF" fill-opacity="0.5"/>
<path d="M97.4242 16.7318C97.8407 16.7355 98.1457 16.4417 98.1531 16.0252C98.1568 15.605 97.863 15.3001 97.4502 15.2963C97.0337 15.2926 96.7251 15.5864 96.7214 15.9992C96.7139 16.4157 97.0151 16.7244 97.4242 16.7318Z" fill="#4B68BF" fill-opacity="0.5"/>
<path d="M104.575 15.2963C104.163 15.3001 103.861 15.605 103.865 16.0215C103.869 16.4343 104.178 16.7355 104.59 16.7318C105.007 16.7281 105.301 16.4231 105.297 16.0066C105.297 15.5901 104.992 15.2926 104.575 15.2963Z" fill="#4B68BF" fill-opacity="0.5"/>
<path d="M111.76 15.2963C111.344 15.2852 111.028 15.5752 111.013 15.9843C111.002 16.4008 111.292 16.7169 111.701 16.7318C112.117 16.7429 112.433 16.4529 112.444 16.0438C112.459 15.6199 112.173 15.3075 111.76 15.2963Z" fill="#4B68BF" fill-opacity="0.5"/>
<path d="M118.893 15.2963C118.476 15.2926 118.168 15.5901 118.164 15.9992C118.16 16.4157 118.458 16.7244 118.871 16.7281C119.287 16.7318 119.592 16.4343 119.596 16.0215C119.599 15.605 119.306 15.3001 118.893 15.2963Z" fill="#4B68BF" fill-opacity="0.5"/>
<path d="M93.8653 20.3056C94.2818 20.3019 94.5793 20.0006 94.5756 19.5841C94.5756 19.1676 94.2744 18.8701 93.8579 18.8701C93.4414 18.8701 93.1439 19.1751 93.1439 19.5916C93.1476 20.0043 93.4525 20.3056 93.8653 20.3056Z" fill="#4B68BF" fill-opacity="0.5"/>
<path d="M100.295 19.5358C100.273 19.956 100.555 20.2795 100.961 20.3056C101.377 20.3279 101.705 20.0453 101.727 19.6399C101.749 19.2197 101.47 18.8961 101.065 18.8738C100.641 18.8478 100.317 19.1304 100.295 19.5358Z" fill="#4B68BF" fill-opacity="0.5"/>
<path d="M108.186 18.8701C107.77 18.859 107.454 19.1453 107.443 19.5581C107.432 19.9746 107.722 20.2907 108.131 20.3056C108.547 20.3167 108.863 20.0267 108.874 19.6176C108.886 19.1936 108.599 18.8813 108.186 18.8701Z" fill="#4B68BF" fill-opacity="0.5"/>
<path d="M115.293 18.8701C114.88 18.8738 114.583 19.1825 114.59 19.599C114.594 20.0118 114.903 20.3093 115.319 20.3056C115.732 20.2981 116.026 19.9932 116.022 19.5767C116.015 19.1602 115.71 18.8664 115.293 18.8701Z" fill="#4B68BF" fill-opacity="0.5"/>
<path d="M97.4354 23.8793C97.8519 23.8793 98.1494 23.5818 98.1531 23.1653C98.1531 22.7488 97.8556 22.4476 97.4391 22.4476C97.0226 22.4476 96.7214 22.7488 96.7214 23.1616C96.7214 23.5744 97.0226 23.8793 97.4354 23.8793Z" fill="#4B68BF" fill-opacity="0.5"/>
<path d="M104.568 22.4439C104.155 22.4513 103.858 22.76 103.865 23.1765C103.873 23.5893 104.181 23.8868 104.598 23.8793C105.011 23.8719 105.304 23.567 105.297 23.1467C105.293 22.7302 104.988 22.4364 104.568 22.4439Z" fill="#4B68BF" fill-opacity="0.5"/>
<path d="M111.745 22.4439C111.329 22.4402 111.02 22.7377 111.016 23.1467C111.013 23.5632 111.31 23.8719 111.723 23.8756C112.14 23.8793 112.444 23.5856 112.448 23.169C112.452 22.7525 112.158 22.4476 111.745 22.4439Z" fill="#4B68BF" fill-opacity="0.5"/>
<path d="M100.983 27.4531C101.4 27.4643 101.716 27.1742 101.727 26.7651C101.738 26.3449 101.452 26.0325 101.043 26.0214C100.626 26.0102 100.31 26.3003 100.295 26.7094C100.28 27.1222 100.574 27.4382 100.983 27.4531Z" fill="#4B68BF" fill-opacity="0.5"/>
<path d="M108.175 26.0177C107.759 26.0102 107.446 26.304 107.439 26.7168C107.432 27.1333 107.729 27.4457 108.138 27.4531C108.555 27.4606 108.863 27.1668 108.871 26.754C108.882 26.3338 108.588 26.0251 108.175 26.0177Z" fill="#4B68BF" fill-opacity="0.5"/>
<path d="M104.572 29.5914C104.159 29.5989 103.861 29.9038 103.869 30.3203C103.876 30.7331 104.185 31.0306 104.598 31.0232C105.011 31.0157 105.304 30.7108 105.301 30.2943C105.293 29.8815 104.988 29.584 104.572 29.5914Z" fill="#4B68BF" fill-opacity="0.5"/>
<path d="M97.4391 2.43669C97.8556 2.43669 98.1531 2.13547 98.1531 1.71524C98.1531 1.29873 97.8519 1.00123 97.4354 1.00123C97.0189 1.00123 96.7176 1.30617 96.7214 1.71896C96.7214 2.13547 97.0263 2.43669 97.4391 2.43669Z" fill="#4B68BF" fill-opacity="0.5"/>
<path d="M105.297 1.76731C105.319 1.34708 105.04 1.02355 104.635 1.00123C104.215 0.978921 103.891 1.26155 103.869 1.6669C103.847 2.08341 104.129 2.41066 104.535 2.43298C104.951 2.45901 105.278 2.17266 105.297 1.76731Z" fill="#4B68BF" fill-opacity="0.5"/>
<path d="M111.745 1.00123C111.329 0.997513 111.02 1.29502 111.016 1.70409C111.013 2.12059 111.31 2.42926 111.723 2.43297C112.14 2.43669 112.444 2.14291 112.448 1.7264C112.452 1.30989 112.158 1.00867 111.745 1.00123Z" fill="#4B68BF" fill-opacity="0.5"/>
<path d="M93.8765 6.01047C94.2893 6.00303 94.583 5.69809 94.5793 5.28158C94.5756 4.8688 94.2707 4.57129 93.8504 4.57873C93.4376 4.58616 93.1401 4.89111 93.1476 5.30761C93.1513 5.71668 93.46 6.01419 93.8765 6.01047Z" fill="#4B68BF" fill-opacity="0.5"/>
<path d="M101.024 4.57501C100.608 4.57129 100.303 4.86508 100.295 5.27786C100.291 5.69437 100.585 6.00303 100.998 6.00675C101.415 6.01047 101.719 5.71668 101.727 5.30018C101.731 4.88739 101.437 4.58245 101.024 4.57501Z" fill="#4B68BF" fill-opacity="0.5"/>
<path d="M108.164 4.57501C107.748 4.57129 107.443 4.86879 107.443 5.2853C107.439 5.70181 107.74 6.00675 108.153 6.01047C108.569 6.01419 108.871 5.71296 108.874 5.30018C108.874 4.87995 108.581 4.57873 108.164 4.57501Z" fill="#4B68BF" fill-opacity="0.5"/>
<path d="M115.304 4.575C114.888 4.575 114.59 4.87623 114.59 5.29273C114.59 5.70924 114.895 6.01046 115.308 6.00675C115.724 6.00675 116.022 5.70552 116.022 5.2853C116.018 4.87251 115.721 4.575 115.304 4.575Z" fill="#4B68BF" fill-opacity="0.5"/>
<path d="M90.2804 9.58424C90.6969 9.58796 90.9981 9.29046 91.0018 8.87395C91.0055 8.45745 90.708 8.1525 90.2953 8.14878C89.8787 8.14507 89.5738 8.44629 89.5701 8.85908C89.5701 9.27186 89.8713 9.58053 90.2804 9.58424Z" fill="#4B68BF" fill-opacity="0.5"/>
<path d="M97.4279 9.58424C97.8444 9.58796 98.1457 9.29046 98.1494 8.87395C98.1531 8.45745 97.8556 8.1525 97.4428 8.14878C97.0263 8.14507 96.7214 8.44629 96.7176 8.85908C96.7176 9.27186 97.0189 9.58053 97.4279 9.58424Z" fill="#4B68BF" fill-opacity="0.5"/>
<path d="M104.613 8.14879C104.196 8.13763 103.88 8.4277 103.865 8.83677C103.854 9.25327 104.144 9.56937 104.553 9.58425C104.97 9.59912 105.286 9.30534 105.297 8.89627C105.312 8.47232 105.025 8.16366 104.613 8.14879Z" fill="#4B68BF" fill-opacity="0.5"/>
<path d="M111.734 8.14878C111.318 8.14878 111.016 8.45 111.016 8.86279C111.016 9.2793 111.318 9.58052 111.73 9.58424C112.147 9.58424 112.448 9.28674 112.448 8.87023C112.448 8.45 112.151 8.14878 111.734 8.14878Z" fill="#4B68BF" fill-opacity="0.5"/>
<path d="M118.885 8.14878C118.469 8.14507 118.164 8.44629 118.16 8.85908C118.157 9.27558 118.458 9.58053 118.871 9.58424C119.287 9.58796 119.588 9.28674 119.592 8.87395C119.596 8.45373 119.302 8.1525 118.885 8.14878Z" fill="#4B68BF" fill-opacity="0.5"/>
<path d="M86.7103 13.158C87.1268 13.1617 87.4281 12.8605 87.4318 12.4477C87.4355 12.0312 87.138 11.7263 86.7252 11.7263C86.3087 11.7226 86.0038 12.0238 86 12.4366C85.9963 12.8456 86.2975 13.1543 86.7103 13.158Z" fill="#4B68BF" fill-opacity="0.5"/>
<path d="M93.8356 13.158C94.2521 13.1729 94.5682 12.8791 94.5793 12.47C94.5905 12.0498 94.3041 11.7374 93.8951 11.7226C93.4786 11.7114 93.1625 12.0015 93.1476 12.4105C93.1327 12.827 93.4265 13.1431 93.8356 13.158Z" fill="#4B68BF" fill-opacity="0.5"/>
<path d="M101.02 11.7226C100.604 11.7188 100.295 12.0163 100.291 12.4291C100.288 12.8456 100.585 13.1543 100.998 13.158C101.414 13.1617 101.719 12.8642 101.723 12.4514C101.731 12.0312 101.437 11.7263 101.02 11.7226Z" fill="#4B68BF" fill-opacity="0.5"/>
<path d="M179.444 73.549L183.551 69.4412C182.822 69.8579 182.145 70.3565 181.532 70.9221L180.925 71.5298C180.359 72.1425 179.86 72.8197 179.444 73.549Z" fill="#4B68BF" fill-opacity="0.5"/>
<path d="M178.218 76.8134L186.816 68.2158C186.578 68.2629 186.345 68.32 186.111 68.382L178.384 76.1089C178.322 76.3421 178.265 76.5753 178.218 76.8134Z" fill="#4B68BF" fill-opacity="0.5"/>
<path d="M178 78.9988C178 79.0211 178 79.0459 178 79.0682L189.071 68C189.048 68 189.024 68 189.001 68C188.84 68 188.681 68.005 188.525 68.0099L178.012 78.5225C178.005 78.6813 178 78.84 178 78.9988Z" fill="#4B68BF" fill-opacity="0.5"/>
<path d="M178.171 80.9385L190.939 68.1711C190.785 68.1439 190.628 68.1191 190.475 68.0992L178.099 80.4747C178.119 80.6285 178.144 80.7847 178.171 80.9385Z" fill="#4B68BF" fill-opacity="0.5"/>
<path d="M178.588 82.5583L192.558 68.5879C192.424 68.5408 192.288 68.4986 192.152 68.4589L178.459 82.1515C178.501 82.288 178.543 82.4244 178.588 82.5583Z" fill="#4B68BF" fill-opacity="0.5"/>
<path d="M179.196 83.9896L193.992 69.1931C193.873 69.1336 193.751 69.0741 193.63 69.017L179.02 83.6275C179.077 83.749 179.134 83.8706 179.196 83.9896Z" fill="#4B68BF" fill-opacity="0.5"/>
<path d="M179.96 85.2646L195.267 69.9572C195.16 69.8827 195.054 69.8108 194.945 69.7413L179.744 84.9422C179.813 85.0513 179.885 85.158 179.96 85.2646Z" fill="#4B68BF" fill-opacity="0.5"/>
<path d="M180.863 86.4007L196.401 70.8626C196.306 70.7782 196.212 70.6939 196.115 70.612L180.612 86.1155C180.694 86.2097 180.778 86.3065 180.863 86.4007Z" fill="#4B68BF" fill-opacity="0.5"/>
<path d="M181.902 87.4004L197.403 71.8994C197.321 71.8027 197.237 71.7059 197.152 71.6117L181.614 87.1498C181.708 87.2342 181.803 87.3185 181.902 87.4004Z" fill="#4B68BF" fill-opacity="0.5"/>
<path d="M183.073 88.2661L198.269 73.0702C198.199 72.9611 198.127 72.8544 198.053 72.7478L182.75 88.0528C182.857 88.1247 182.964 88.1966 183.073 88.2661Z" fill="#4B68BF" fill-opacity="0.5"/>
<path d="M184.39 88.9879L198.988 74.3899C198.931 74.2684 198.874 74.1468 198.812 74.0277L184.025 88.8143C184.147 88.8738 184.268 88.9309 184.39 88.9879Z" fill="#4B68BF" fill-opacity="0.5"/>
<path d="M185.871 89.5461L199.549 75.8683C199.509 75.7319 199.464 75.5955 199.42 75.4615L185.464 89.4171C185.598 89.4642 185.734 89.5064 185.871 89.5461Z" fill="#4B68BF" fill-opacity="0.5"/>
<path d="M187.553 89.9033L199.906 77.5501C199.886 77.3938 199.861 77.2376 199.834 77.0838L187.086 89.8313C187.24 89.8586 187.396 89.8834 187.553 89.9033Z" fill="#4B68BF" fill-opacity="0.5"/>
<path d="M189.001 90C189.172 90 189.341 89.995 189.507 89.9876L199.988 79.5073C199.995 79.3386 200 79.1699 200 79.0012C200 78.9864 200 78.974 200 78.9591L188.959 90C188.971 89.9975 188.986 90 189.001 90Z" fill="#4B68BF" fill-opacity="0.5"/>
<path d="M191.928 89.6031L199.606 81.9258C199.67 81.6926 199.727 81.457 199.777 81.2189L191.221 89.7743C191.459 89.7247 191.695 89.6676 191.928 89.6031Z" fill="#4B68BF" fill-opacity="0.5"/>
<path d="M198.517 84.5155L194.516 88.5166C196.173 87.5542 197.554 86.1725 198.517 84.5155Z" fill="#4B68BF" fill-opacity="0.5"/>
<path d="M10.4437 25.549L14.5515 21.4412C13.8222 21.8579 13.145 22.3565 12.5323 22.9221L11.9246 23.5298C11.359 24.1425 10.8604 24.8197 10.4437 25.549Z" fill="#4B68BF" fill-opacity="0.5"/>
<path d="M9.21829 28.8134L17.8159 20.2158C17.5777 20.2629 17.3446 20.32 17.1114 20.382L9.38448 28.1089C9.32247 28.3421 9.26542 28.5753 9.21829 28.8134Z" fill="#4B68BF" fill-opacity="0.5"/>
<path d="M9 30.9988C9 31.0211 9 31.0459 9 31.0682L20.0707 20C20.0484 20 20.0236 20 20.0012 20C19.84 20 19.6812 20.005 19.525 20.0099L9.0124 30.5225C9.00496 30.6813 9 30.84 9 30.9988Z" fill="#4B68BF" fill-opacity="0.5"/>
<path d="M9.17115 32.9385L21.9385 20.1712C21.7847 20.1439 21.6285 20.1191 21.4747 20.0992L9.09921 32.4747C9.11906 32.6285 9.14386 32.7848 9.17115 32.9385Z" fill="#4B68BF" fill-opacity="0.5"/>
<path d="M9.58789 34.5583L23.5584 20.5879C23.4244 20.5408 23.288 20.4986 23.1515 20.4589L9.45891 34.1515C9.50108 34.288 9.54324 34.4244 9.58789 34.5583Z" fill="#4B68BF" fill-opacity="0.5"/>
<path d="M10.1956 35.9896L24.9921 21.1931C24.873 21.1336 24.7515 21.0741 24.6299 21.017L10.0195 35.6275C10.0766 35.749 10.1336 35.8706 10.1956 35.9896Z" fill="#4B68BF" fill-opacity="0.5"/>
<path d="M10.9596 37.2646L26.2671 21.9571C26.1604 21.8827 26.0538 21.8108 25.9446 21.7413L10.7438 36.9422C10.8133 37.0513 10.8852 37.158 10.9596 37.2646Z" fill="#4B68BF" fill-opacity="0.5"/>
<path d="M11.8626 38.4007L27.4007 22.8626C27.3065 22.7782 27.2122 22.6939 27.1155 22.612L11.612 38.1155C11.6939 38.2097 11.7782 38.3065 11.8626 38.4007Z" fill="#4B68BF" fill-opacity="0.5"/>
<path d="M12.9019 39.4004L28.4029 23.8994C28.321 23.8027 28.2367 23.7059 28.1523 23.6117L12.6142 39.1498C12.7084 39.2342 12.8027 39.3185 12.9019 39.4004Z" fill="#4B68BF" fill-opacity="0.5"/>
<path d="M14.0727 40.2661L29.2686 25.0702C29.1991 24.9611 29.1272 24.8544 29.0528 24.7478L13.7502 40.0528C13.8569 40.1247 13.9636 40.1966 14.0727 40.2661Z" fill="#4B68BF" fill-opacity="0.5"/>
<path d="M15.3899 40.9879L29.9879 26.3899C29.9309 26.2684 29.8738 26.1468 29.8118 26.0277L15.0253 40.8143C15.1468 40.8738 15.2683 40.9309 15.3899 40.9879Z" fill="#4B68BF" fill-opacity="0.5"/>
<path d="M16.8708 41.5461L30.5485 27.8683C30.5089 27.7319 30.4642 27.5955 30.4196 27.4615L16.464 41.4171C16.5979 41.4642 16.7344 41.5064 16.8708 41.5461Z" fill="#4B68BF" fill-opacity="0.5"/>
<path d="M18.5526 41.9033L30.9057 29.5501C30.8859 29.3938 30.8611 29.2376 30.8338 29.0838L18.0863 41.8313C18.2401 41.8586 18.3963 41.8834 18.5526 41.9033Z" fill="#4B68BF" fill-opacity="0.5"/>
<path d="M20.0012 42C20.1724 42 20.3411 41.995 20.5073 41.9876L30.9876 31.5073C30.995 31.3386 31 31.1699 31 31.0012C31 30.9864 31 30.974 31 30.9591L19.9591 42C19.9715 41.9975 19.9864 42 20.0012 42Z" fill="#4B68BF" fill-opacity="0.5"/>
<path d="M22.9283 41.6031L30.6056 33.9258C30.6701 33.6926 30.7271 33.457 30.7768 33.2189L22.2213 41.7743C22.4595 41.7247 22.6951 41.6676 22.9283 41.6031Z" fill="#4B68BF" fill-opacity="0.5"/>
<path d="M29.5166 36.5155L25.5155 40.5166C27.1725 39.5542 28.5542 38.1725 29.5166 36.5155Z" fill="#4B68BF" fill-opacity="0.5"/>
<path d="M388 41L351 4H388V41Z" fill="#4B68BF"/>
<rect x="263.5" y="47.5" width="96" height="114" stroke="#4B68BF" stroke-width="3"/>
</svg>
