<svg id="Capa_1" enable-background="new 0 0 512 512" fill="rgb(75,104,191)" height="512" viewBox="0 0 512 512" width="512" xmlns="http://www.w3.org/2000/svg"><g><g><path d="m504.5 105.89c4.143 0 7.5-3.357 7.5-7.5v-42.4c0-30.873-25.117-55.99-55.99-55.99-13.395 0-26.348 4.8-36.461 13.506-3.38 2.896-5.318 7.17-5.318 11.725v87.909h-301.631c-4.142 0-7.5 3.357-7.5 7.5s3.358 7.5 7.5 7.5h301.63v277.73c0 5.47 2.783 10.427 7.444 13.261 4.729 2.875 10.504 3.061 15.46.49 5.862-3.054 12.213-4.602 18.875-4.602 18.168 0 33.932 11.669 39.225 29.033 1.172 3.852 1.766 7.874 1.766 11.957 0 22.603-18.388 40.99-40.99 40.99h-34.28c-4.143 0-7.5 3.357-7.5 7.5s3.357 7.5 7.5 7.5h34.279c30.873 0 55.99-25.117 55.99-55.99v-322.619c0-4.143-3.357-7.5-7.5-7.5s-7.5 3.357-7.5 7.5v284.369c-10.318-11.094-24.971-17.739-40.99-17.739-8.972 0-17.895 2.178-25.792 6.292-.102.052-.406.21-.751.002-.219-.133-.236-.273-.236-.443v-380.641c0-.205.066-.32.092-.346 7.406-6.373 16.883-9.884 26.688-9.884 22.602 0 40.99 18.388 40.99 40.99v42.4c0 4.142 3.357 7.5 7.5 7.5z"/><path d="m386.73 497h-369.13c-1.434 0-2.6-1.166-2.6-2.6v-363.66c0-1.434 1.167-2.601 2.6-2.601h60c4.142 0 7.5-3.357 7.5-7.5s-3.358-7.5-7.5-7.5h-60c-9.705 0-17.6 7.896-17.6 17.601v363.66c0 9.704 7.896 17.6 17.6 17.6h369.13c4.143 0 7.5-3.357 7.5-7.5s-3.357-7.5-7.5-7.5z"/><path d="m389.402 145.464h-349.577c-4.142 0-7.5 3.357-7.5 7.5v64.65c0 4.143 3.358 7.5 7.5 7.5h349.577c4.143 0 7.5-3.357 7.5-7.5v-64.65c0-4.143-3.357-7.5-7.5-7.5zm-216.03 39.825-126.047 23.311v-46.622zm-51.751-24.825h185.985l-92.992 17.198zm92.993 32.452 92.992 17.198h-185.985zm41.242-7.627 126.046-23.311v46.622z"/><path d="m295.427 479.675c4.143 0 7.5-3.357 7.5-7.5v-222.236c0-4.143-3.357-7.5-7.5-7.5h-161.626c-4.142 0-7.5 3.357-7.5 7.5v222.235c0 4.143 3.358 7.5 7.5 7.5h161.626zm-71.54-118.618 64.039-88.054v176.108zm56.812 103.618h-132.17l66.085-90.867zm-66.085-116.369-66.085-90.867h132.17zm-9.274 12.751-64.039 88.054v-176.108z"/><path d="m39.825 479.675h48.488c4.142 0 7.5-3.357 7.5-7.5v-222.236c0-4.143-3.358-7.5-7.5-7.5h-48.488c-4.142 0-7.5 3.357-7.5 7.5v222.235c0 4.143 3.358 7.501 7.5 7.501zm7.5-222.236h33.488v207.235h-33.488z"/><path d="m389.402 242.439h-48.488c-4.143 0-7.5 3.357-7.5 7.5v145.463c0 4.143 3.357 7.5 7.5 7.5h48.488c4.143 0 7.5-3.357 7.5-7.5v-145.463c0-4.142-3.357-7.5-7.5-7.5zm-40.988 63.488h33.488v33.488h-33.488zm0-48.488h33.488v33.487h-33.488zm33.488 130.463h-33.488v-33.487h33.488z"/></g></g></svg>